<mxfile host="app.diagrams.net" modified="2021-07-12T18:51:01.900Z" agent="5.0 (Windows NT 10.0; Win64; x64) AppleWebKit/537.36 (KHTML, like Gecko) Chrome/91.0.4472.124 Safari/537.36" version="14.8.5" etag="Q-Dw2Sy1fDvo3IfgPGAy" type="github">
  <diagram id="BdHsjS3AGjy2uNAjorTe" name="Page-1">
    <mxGraphModel dx="3020" dy="1225" grid="1" gridSize="10" guides="1" tooltips="1" connect="1" arrows="1" fold="1" page="1" pageScale="1" pageWidth="850" pageHeight="1100" background="#FFFFFF" math="0" shadow="0">
      <root>
        <mxCell id="0" />
        <mxCell id="1" parent="0" />
        <mxCell id="3" value="Client" style="swimlane;" parent="1" vertex="1">
          <mxGeometry x="400" y="210" width="600" height="490" as="geometry">
            <mxRectangle x="400" y="130" width="70" height="23" as="alternateBounds" />
          </mxGeometry>
        </mxCell>
        <mxCell id="37" style="edgeStyle=orthogonalEdgeStyle;rounded=0;orthogonalLoop=1;jettySize=auto;html=1;entryX=0.25;entryY=1;entryDx=0;entryDy=0;startArrow=none;startFill=0;exitX=0.332;exitY=-0.025;exitDx=0;exitDy=0;exitPerimeter=0;" parent="3" source="32" target="33" edge="1">
          <mxGeometry relative="1" as="geometry">
            <Array as="points" />
          </mxGeometry>
        </mxCell>
        <mxCell id="46" style="edgeStyle=orthogonalEdgeStyle;rounded=0;orthogonalLoop=1;jettySize=auto;html=1;entryX=0.5;entryY=0;entryDx=0;entryDy=0;startArrow=none;startFill=0;" parent="3" source="32" target="45" edge="1">
          <mxGeometry relative="1" as="geometry" />
        </mxCell>
        <mxCell id="AjQNmJvzGuttGl8qA7sp-47" style="edgeStyle=orthogonalEdgeStyle;rounded=0;orthogonalLoop=1;jettySize=auto;html=1;entryX=0.5;entryY=0;entryDx=0;entryDy=0;" edge="1" parent="3" source="32" target="AjQNmJvzGuttGl8qA7sp-46">
          <mxGeometry relative="1" as="geometry" />
        </mxCell>
        <mxCell id="32" value="Game Engine&lt;br&gt;(pymunk)" style="rounded=0;whiteSpace=wrap;html=1;" parent="3" vertex="1">
          <mxGeometry x="80" y="270" width="120" height="80" as="geometry" />
        </mxCell>
        <mxCell id="36" style="edgeStyle=orthogonalEdgeStyle;rounded=0;orthogonalLoop=1;jettySize=auto;html=1;startArrow=none;startFill=0;" parent="3" source="33" edge="1">
          <mxGeometry relative="1" as="geometry">
            <mxPoint x="150" y="270" as="targetPoint" />
            <Array as="points">
              <mxPoint x="150" y="270" />
            </Array>
          </mxGeometry>
        </mxCell>
        <mxCell id="33" value="Net Com(client)" style="shape=process;whiteSpace=wrap;html=1;backgroundOutline=1;" parent="3" vertex="1">
          <mxGeometry x="100" y="150" width="80" height="60" as="geometry" />
        </mxCell>
        <mxCell id="38" value="recieve server&lt;br&gt;events" style="text;html=1;align=center;verticalAlign=middle;resizable=0;points=[];autosize=1;strokeColor=none;" parent="3" vertex="1">
          <mxGeometry x="150" y="220" width="90" height="30" as="geometry" />
        </mxCell>
        <mxCell id="39" value="emit client&lt;br&gt;events" style="text;html=1;align=center;verticalAlign=middle;resizable=0;points=[];autosize=1;strokeColor=none;" parent="3" vertex="1">
          <mxGeometry x="50" y="220" width="70" height="30" as="geometry" />
        </mxCell>
        <mxCell id="42" style="edgeStyle=orthogonalEdgeStyle;rounded=0;orthogonalLoop=1;jettySize=auto;html=1;entryX=0.5;entryY=0;entryDx=0;entryDy=0;startArrow=none;startFill=0;" parent="3" source="40" target="41" edge="1">
          <mxGeometry relative="1" as="geometry" />
        </mxCell>
        <mxCell id="40" value="Keyboard" style="rounded=0;whiteSpace=wrap;html=1;" parent="3" vertex="1">
          <mxGeometry x="440" y="130" width="120" height="30" as="geometry" />
        </mxCell>
        <mxCell id="43" style="edgeStyle=orthogonalEdgeStyle;rounded=0;orthogonalLoop=1;jettySize=auto;html=1;entryX=1;entryY=0.25;entryDx=0;entryDy=0;startArrow=none;startFill=0;" parent="3" source="41" target="32" edge="1">
          <mxGeometry relative="1" as="geometry">
            <Array as="points">
              <mxPoint x="320" y="290" />
            </Array>
          </mxGeometry>
        </mxCell>
        <mxCell id="41" value="Input manager" style="rounded=0;whiteSpace=wrap;html=1;" parent="3" vertex="1">
          <mxGeometry x="440" y="200" width="120" height="30" as="geometry" />
        </mxCell>
        <mxCell id="44" value="Emit player&lt;br&gt;events" style="text;html=1;align=center;verticalAlign=middle;resizable=0;points=[];autosize=1;strokeColor=none;" parent="3" vertex="1">
          <mxGeometry x="230" y="260" width="80" height="30" as="geometry" />
        </mxCell>
        <mxCell id="45" value="Screen" style="rounded=0;whiteSpace=wrap;html=1;" parent="3" vertex="1">
          <mxGeometry x="430" y="390" width="120" height="60" as="geometry" />
        </mxCell>
        <mxCell id="AjQNmJvzGuttGl8qA7sp-46" value="Sound system(pygame.mixer)" style="rounded=0;whiteSpace=wrap;html=1;" vertex="1" parent="3">
          <mxGeometry x="60" y="390" width="160" height="60" as="geometry" />
        </mxCell>
        <mxCell id="4" value="Game Server" style="swimlane;" parent="1" vertex="1">
          <mxGeometry x="-530" y="130" width="620" height="600" as="geometry" />
        </mxCell>
        <mxCell id="31" style="edgeStyle=orthogonalEdgeStyle;rounded=0;orthogonalLoop=1;jettySize=auto;html=1;entryX=0.5;entryY=0;entryDx=0;entryDy=0;startArrow=none;startFill=0;" parent="4" source="5" target="30" edge="1">
          <mxGeometry relative="1" as="geometry" />
        </mxCell>
        <mxCell id="5" value="Game Engine&lt;br&gt;(pymunk)" style="rounded=0;whiteSpace=wrap;html=1;" parent="4" vertex="1">
          <mxGeometry x="120" y="450" width="120" height="80" as="geometry" />
        </mxCell>
        <mxCell id="27" style="edgeStyle=orthogonalEdgeStyle;rounded=0;orthogonalLoop=1;jettySize=auto;html=1;entryX=1;entryY=0.75;entryDx=0;entryDy=0;startArrow=none;startFill=0;" parent="4" source="7" target="9" edge="1">
          <mxGeometry relative="1" as="geometry">
            <Array as="points">
              <mxPoint x="460" y="265" />
              <mxPoint x="460" y="265" />
            </Array>
          </mxGeometry>
        </mxCell>
        <mxCell id="7" value="Net Com(server)" style="shape=process;whiteSpace=wrap;html=1;backgroundOutline=1;" parent="4" vertex="1">
          <mxGeometry x="515" y="220" width="80" height="60" as="geometry" />
        </mxCell>
        <mxCell id="17" style="edgeStyle=orthogonalEdgeStyle;rounded=0;orthogonalLoop=1;jettySize=auto;html=1;entryX=0;entryY=0.25;entryDx=0;entryDy=0;startArrow=none;startFill=0;" parent="4" source="9" target="7" edge="1">
          <mxGeometry relative="1" as="geometry">
            <Array as="points">
              <mxPoint x="430" y="235" />
              <mxPoint x="430" y="235" />
            </Array>
          </mxGeometry>
        </mxCell>
        <mxCell id="AjQNmJvzGuttGl8qA7sp-53" style="edgeStyle=orthogonalEdgeStyle;rounded=0;orthogonalLoop=1;jettySize=auto;html=1;entryX=0.5;entryY=1;entryDx=0;entryDy=0;" edge="1" parent="4" source="9" target="10">
          <mxGeometry relative="1" as="geometry" />
        </mxCell>
        <mxCell id="AjQNmJvzGuttGl8qA7sp-66" style="edgeStyle=orthogonalEdgeStyle;rounded=0;orthogonalLoop=1;jettySize=auto;html=1;entryX=1;entryY=0.5;entryDx=0;entryDy=0;entryPerimeter=0;" edge="1" parent="4" source="9" target="AjQNmJvzGuttGl8qA7sp-65">
          <mxGeometry relative="1" as="geometry" />
        </mxCell>
        <mxCell id="9" value="Server" style="rounded=0;whiteSpace=wrap;html=1;" parent="4" vertex="1">
          <mxGeometry x="250" y="220" width="120" height="60" as="geometry" />
        </mxCell>
        <mxCell id="AjQNmJvzGuttGl8qA7sp-56" style="edgeStyle=orthogonalEdgeStyle;rounded=0;orthogonalLoop=1;jettySize=auto;html=1;entryX=0.5;entryY=1;entryDx=0;entryDy=0;" edge="1" parent="4" source="10" target="20">
          <mxGeometry relative="1" as="geometry" />
        </mxCell>
        <mxCell id="10" value="Database manager" style="rounded=0;whiteSpace=wrap;html=1;" parent="4" vertex="1">
          <mxGeometry x="260" y="120" width="100" height="60" as="geometry" />
        </mxCell>
        <mxCell id="19" value="Local&lt;br&gt;Player database" style="shape=cylinder3;whiteSpace=wrap;html=1;boundedLbl=1;backgroundOutline=1;size=15;" parent="4" vertex="1">
          <mxGeometry x="380" y="35" width="70" height="70" as="geometry" />
        </mxCell>
        <mxCell id="18" value="emit server&lt;br&gt;events" style="text;html=1;align=center;verticalAlign=middle;resizable=0;points=[];autosize=1;strokeColor=none;" parent="4" vertex="1">
          <mxGeometry x="400" y="205" width="70" height="30" as="geometry" />
        </mxCell>
        <mxCell id="28" value="recieve client&lt;br&gt;events" style="text;html=1;align=center;verticalAlign=middle;resizable=0;points=[];autosize=1;strokeColor=none;" parent="4" vertex="1">
          <mxGeometry x="390" y="270" width="90" height="30" as="geometry" />
        </mxCell>
        <mxCell id="30" value="PyGame debugger" style="rounded=0;whiteSpace=wrap;html=1;" parent="4" vertex="1">
          <mxGeometry x="120" y="550" width="120" height="30" as="geometry" />
        </mxCell>
        <mxCell id="AjQNmJvzGuttGl8qA7sp-49" value="Game Engine&lt;br&gt;(pymunk)" style="rounded=0;whiteSpace=wrap;html=1;" vertex="1" parent="4">
          <mxGeometry x="250" y="450" width="120" height="80" as="geometry" />
        </mxCell>
        <mxCell id="AjQNmJvzGuttGl8qA7sp-50" value="PyGame debugger" style="rounded=0;whiteSpace=wrap;html=1;" vertex="1" parent="4">
          <mxGeometry x="250" y="550" width="120" height="30" as="geometry" />
        </mxCell>
        <mxCell id="AjQNmJvzGuttGl8qA7sp-48" style="edgeStyle=orthogonalEdgeStyle;rounded=0;orthogonalLoop=1;jettySize=auto;html=1;entryX=0.5;entryY=0;entryDx=0;entryDy=0;startArrow=none;startFill=0;" edge="1" parent="4" source="AjQNmJvzGuttGl8qA7sp-49" target="AjQNmJvzGuttGl8qA7sp-50">
          <mxGeometry relative="1" as="geometry" />
        </mxCell>
        <mxCell id="AjQNmJvzGuttGl8qA7sp-51" value="Instance manager" style="rounded=0;whiteSpace=wrap;html=1;" vertex="1" parent="4">
          <mxGeometry x="120" y="350" width="380" height="45" as="geometry" />
        </mxCell>
        <mxCell id="AjQNmJvzGuttGl8qA7sp-55" style="edgeStyle=orthogonalEdgeStyle;rounded=0;orthogonalLoop=1;jettySize=auto;html=1;entryX=1;entryY=0.5;entryDx=0;entryDy=0;entryPerimeter=0;" edge="1" parent="4" source="20" target="19">
          <mxGeometry relative="1" as="geometry" />
        </mxCell>
        <mxCell id="20" value="use local" style="rhombus;whiteSpace=wrap;html=1;" parent="4" vertex="1">
          <mxGeometry x="490" y="50" width="80" height="40" as="geometry" />
        </mxCell>
        <mxCell id="AjQNmJvzGuttGl8qA7sp-58" value="" style="shape=flexArrow;endArrow=classic;startArrow=classic;html=1;entryX=0.5;entryY=1;entryDx=0;entryDy=0;" edge="1" parent="4" source="AjQNmJvzGuttGl8qA7sp-51" target="9">
          <mxGeometry width="100" height="100" relative="1" as="geometry">
            <mxPoint x="270" y="410" as="sourcePoint" />
            <mxPoint x="370" y="310" as="targetPoint" />
          </mxGeometry>
        </mxCell>
        <mxCell id="AjQNmJvzGuttGl8qA7sp-59" value="Game Engine&lt;br&gt;(pymunk)" style="rounded=0;whiteSpace=wrap;html=1;" vertex="1" parent="4">
          <mxGeometry x="380" y="450" width="120" height="80" as="geometry" />
        </mxCell>
        <mxCell id="AjQNmJvzGuttGl8qA7sp-60" value="PyGame debugger" style="rounded=0;whiteSpace=wrap;html=1;" vertex="1" parent="4">
          <mxGeometry x="380" y="550" width="120" height="30" as="geometry" />
        </mxCell>
        <mxCell id="AjQNmJvzGuttGl8qA7sp-61" style="edgeStyle=orthogonalEdgeStyle;rounded=0;orthogonalLoop=1;jettySize=auto;html=1;entryX=0.5;entryY=0;entryDx=0;entryDy=0;startArrow=none;startFill=0;" edge="1" parent="4" source="AjQNmJvzGuttGl8qA7sp-59" target="AjQNmJvzGuttGl8qA7sp-60">
          <mxGeometry relative="1" as="geometry" />
        </mxCell>
        <mxCell id="AjQNmJvzGuttGl8qA7sp-62" value="" style="shape=flexArrow;endArrow=classic;startArrow=classic;html=1;exitX=0.5;exitY=0;exitDx=0;exitDy=0;endWidth=8;endSize=9.388571428571428;startWidth=8;startSize=9.388571428571428;" edge="1" parent="4" source="5" target="AjQNmJvzGuttGl8qA7sp-51">
          <mxGeometry width="100" height="100" relative="1" as="geometry">
            <mxPoint x="184" y="430" as="sourcePoint" />
            <mxPoint x="180" y="400" as="targetPoint" />
          </mxGeometry>
        </mxCell>
        <mxCell id="AjQNmJvzGuttGl8qA7sp-63" value="" style="shape=flexArrow;endArrow=classic;startArrow=classic;html=1;entryX=0.5;entryY=0;entryDx=0;entryDy=0;startWidth=7.428571428571429;startSize=9.90857142857143;endWidth=7.428571428571429;endSize=9.90857142857143;" edge="1" parent="4" source="AjQNmJvzGuttGl8qA7sp-51" target="AjQNmJvzGuttGl8qA7sp-59">
          <mxGeometry width="100" height="100" relative="1" as="geometry">
            <mxPoint x="280" y="485" as="sourcePoint" />
            <mxPoint x="372.258064516129" y="430" as="targetPoint" />
          </mxGeometry>
        </mxCell>
        <mxCell id="AjQNmJvzGuttGl8qA7sp-64" value="" style="shape=flexArrow;endArrow=classic;startArrow=classic;html=1;entryX=0.5;entryY=0;entryDx=0;entryDy=0;" edge="1" parent="4" target="AjQNmJvzGuttGl8qA7sp-49">
          <mxGeometry width="100" height="100" relative="1" as="geometry">
            <mxPoint x="310" y="395" as="sourcePoint" />
            <mxPoint x="362.26" y="485" as="targetPoint" />
          </mxGeometry>
        </mxCell>
        <mxCell id="AjQNmJvzGuttGl8qA7sp-65" value="log file" style="shape=tape;whiteSpace=wrap;html=1;size=0.21052631578947367;" vertex="1" parent="4">
          <mxGeometry x="40" y="202.5" width="120" height="95" as="geometry" />
        </mxCell>
        <mxCell id="8" value="Player database&lt;br&gt;mongo" style="shape=cylinder3;whiteSpace=wrap;html=1;boundedLbl=1;backgroundOutline=1;size=15;" parent="1" vertex="1">
          <mxGeometry x="160" y="10" width="110" height="140" as="geometry" />
        </mxCell>
        <mxCell id="24" style="edgeStyle=orthogonalEdgeStyle;rounded=0;orthogonalLoop=1;jettySize=auto;html=1;entryX=0;entryY=0.5;entryDx=0;entryDy=0;entryPerimeter=0;startArrow=none;startFill=0;" parent="1" source="20" target="8" edge="1">
          <mxGeometry relative="1" as="geometry">
            <Array as="points">
              <mxPoint y="80" />
            </Array>
          </mxGeometry>
        </mxCell>
        <mxCell id="34" style="edgeStyle=orthogonalEdgeStyle;rounded=0;orthogonalLoop=1;jettySize=auto;html=1;entryX=0;entryY=0.5;entryDx=0;entryDy=0;startArrow=classic;startFill=1;" parent="1" source="25" target="33" edge="1">
          <mxGeometry relative="1" as="geometry" />
        </mxCell>
        <mxCell id="25" value="The Inernet" style="shape=cube;whiteSpace=wrap;html=1;boundedLbl=1;backgroundOutline=1;darkOpacity=0.05;darkOpacity2=0.1;" parent="1" vertex="1">
          <mxGeometry x="170" y="320" width="160" height="140" as="geometry" />
        </mxCell>
        <mxCell id="26" style="edgeStyle=orthogonalEdgeStyle;rounded=0;orthogonalLoop=1;jettySize=auto;html=1;entryX=0;entryY=0;entryDx=0;entryDy=60;entryPerimeter=0;startArrow=classic;startFill=1;" parent="1" source="7" target="25" edge="1">
          <mxGeometry relative="1" as="geometry" />
        </mxCell>
      </root>
    </mxGraphModel>
  </diagram>
</mxfile>
